#!OML:ASF I:\Actors\actors\Patient Classification 2\Patient 1\Session 1\actor1.ASF
:FULLY-SPECIFIED
:DEGREES
368
root -0.431851 18.7087 4.61311 21.4647 3.51078 -3.13293
lowerback 34.5026 0.651062 0.5353
upperback 6.63753 1.06783 0.471279
thorax -10.1707 0.477575 -0.19733
lowerneck -14.8591 -1.11928 0.726084
upperneck 10.6657 -2.3412 4.89801
head 5.71358 -0.730062 1.21769
rclavicle -6.36111e-015 -5.96354e-016
rhumerus 9.17765 23.7804 -78.3035
rradius 57.2687
rwrist 17.247
rhand -26.3647 -43.1449
rfingers 7.12502
rthumb 0.193461 -73.1245
lclavicle -6.36111e-015 -5.96354e-016
lhumerus 13.6674 -33.8302 77.6984
lradius 56.0091
lwrist -10.2709
lhand -16.4339 -27.2449
lfingers 7.12502
lthumb 9.7815 2.50791
rfemur -27.8416 -0.820671 16.9037
rtibia 17.5077
rfoot -20.7693 -14.2417
rtoes -4.49575
lfemur -40.3345 1.08298 -11.1636
ltibia 33.4492
lfoot -14.5876 5.00274
ltoes -55.8629
369
root -0.420808 18.711 4.61452 21.4129 3.73783 -3.16773
lowerback 34.414 0.609188 0.610741
upperback 6.54634 1.05665 0.572998
thorax -10.2397 0.470888 -0.125293
lowerneck -14.9438 -1.42879 0.861897
upperneck 10.4513 -2.7763 4.88312
head 5.66801 -0.940806 1.15033
rclavicle 4.27387e-015 -7.45443e-015
rhumerus 9.29641 23.8633 -78.0259
rradius 57.0461
rwrist 17.2351
rhand -26.6053 -42.904
rfingers 7.12502
rthumb -0.0389213 -72.8838
lclavicle 4.27387e-015 -7.45443e-015
lhumerus 13.6431 -34.2325 77.6669
lradius 56.2141
lwrist -9.96883
lhand -17.2303 -27.6983
lfingers 7.12502
lthumb 9.01311 2.08918
rfemur -27.583 -0.900513 16.9416
rtibia 17.1956
rfoot -20.7978 -14.3793
rtoes -4.47245
lfemur -40.2616 0.827104 -11.0645
ltibia 33.3336
lfoot -14.6017 5.03217
ltoes -55.8384
370
root -0.409662 18.7126 4.61462 21.3366 3.90399 -3.23132
lowerback 34.3752 0.551642 0.735785
upperback 6.45473 1.03693 0.626241
thorax -10.3262 0.458716 -0.128246
lowerneck -15.1749 -1.7284 0.638742
upperneck 10.4395 -3.18556 5.22004
head 5.72152 -1.11983 1.2537
rclavicle 5.56597e-015 -6.95746e-015
rhumerus 9.34911 23.785 -78.0038
rradius 56.9529
rwrist 17.3724
rhand -28.0682 -42.9883
rfingers 7.12502
rthumb -1.45181 -72.9632
lclavicle 5.56597e-015 -6.95746e-015
lhumerus 13.6555 -34.5825 77.5476
lradius 56.491
lwrist -9.53461
lhand -17.7178 -27.9582
lfingers 7.12502
lthumb 8.54265 1.84904
rfemur -27.338 -1.06799 17.0346
rtibia 16.9191
rfoot -20.7237 -14.404
rtoes -4.34649
lfemur -40.1479 0.618512 -10.9526
ltibia 33.2179
lfoot -14.6609 5.06417
ltoes -55.6912
371
root -0.401322 18.7151 4.61528 21.2146 3.9924 -3.25619
lowerback 34.3805 0.5343 0.753928
upperback 6.38301 1.02798 0.663856
thorax -10.4089 0.453858 -0.0951027
lowerneck -15.3825 -2.00043 0.305199
upperneck 10.3912 -3.53214 5.5643
head 5.76213 -1.27321 1.38258
rclavicle 6.55989e-015 5.96354e-016
rhumerus 9.35982 23.6372 -78.0649
rradius 56.9996
rwrist 17.5048
rhand -30.5445 -43.0471
rfingers 7.12502
rthumb -3.84329 -72.9922
lclavicle 6.55989e-015 5.96354e-016
lhumerus 13.6916 -34.8218 77.4809
lradius 56.7758
lwrist -9.14371
lhand -17.8845 -28.0067
lfingers 7.12502
lthumb 8.38179 1.80701
rfemur -27.0678 -1.21915 17.0864
rtibia 16.684
rfoot -20.5943 -14.43
rtoes -4.5369
lfemur -39.9486 0.51329 -10.9255
ltibia 33.1034
lfoot -14.7364 5.06633
ltoes -55.5361
372
root -0.397024 18.7181 4.61681 21.0673 4.01366 -3.24298
lowerback 34.4115 0.542687 0.635252
upperback 6.29958 1.0035 0.70151
thorax -10.517 0.445194 0.0168628
lowerneck -15.4553 -2.19378 0.084482
upperneck 10.2931 -3.75429 5.65204
head 5.75499 -1.38471 1.42436
rclavicle -1.80894e-014 2.88238e-015
rhumerus 9.35341 23.516 -78.2265
rradius 57.0657
rwrist 17.6526
rhand -31.5525 -42.9065
rfingers 7.12502
rthumb -4.81661 -72.8318
lclavicle -1.80894e-014 2.88238e-015
lhumerus 13.7047 -34.9217 77.5087
lradius 56.9717
lwrist -8.88731
lhand -17.819 -27.135
lfingers 7.12502
lthumb 8.44503 2.67614
rfemur -26.7812 -1.26101 17.0779
rtibia 16.4714
rfoot -20.4737 -14.5201
rtoes -4.90153
lfemur -39.7087 0.572172 -10.9929
ltibia 32.9973
lfoot -14.7808 4.94328
ltoes -55.5086
